<svg width="130" height="130" viewBox="0 0 130 130" fill="none" xmlns="http://www.w3.org/2000/svg">
<path d="M93.1644 54.167C72.8233 54.167 56.3315 70.6588 56.3315 91.0012C56.3315 111.344 72.8233 127.834 93.1644 127.834C113.507 127.834 130 111.345 130 91.0012C129.978 70.6692 113.498 54.1904 93.1644 54.167ZM93.1644 123.501C75.2153 123.501 60.6644 108.95 60.6644 91.0012C60.6644 73.0521 75.2153 58.5012 93.1644 58.5012C111.114 58.5012 125.664 73.0521 125.664 91.0012C125.645 108.941 111.104 123.48 93.1644 123.501Z" fill="#1C3AA9"/>
<path d="M95.3212 84.9005V71.5014H90.987V84.9005C90.0807 85.224 89.2576 85.7448 88.5773 86.4254C87.8969 87.1059 87.3763 87.9292 87.0532 88.8356H77.987V93.1685H87.0532C87.4168 94.2028 88.0367 95.128 88.855 95.8577C89.6733 96.5873 90.6632 97.0976 91.7323 97.3408C92.8013 97.5839 93.9146 97.5521 94.968 97.2482C96.0214 96.9443 96.9805 96.3783 97.7557 95.603C98.531 94.8278 99.097 93.8687 99.4009 92.8153C99.7048 91.7619 99.7366 90.6486 99.4935 89.5796C99.2503 88.5106 98.74 87.5206 98.0104 86.7023C97.2807 85.8841 96.3555 85.2641 95.3212 84.9005ZM93.1541 93.1685C92.8651 93.1756 92.5777 93.1248 92.3086 93.0191C92.0396 92.9134 91.7944 92.755 91.5875 92.5531C91.3807 92.3512 91.2163 92.11 91.104 91.8436C90.9918 91.5772 90.9339 91.2911 90.9339 91.0021C90.9339 90.713 90.9918 90.4269 91.104 90.1605C91.2163 89.8941 91.3807 89.6529 91.5875 89.451C91.7944 89.2492 92.0396 89.0907 92.3086 88.985C92.5777 88.8793 92.8651 88.8285 93.1541 88.8356C93.7195 88.8495 94.2571 89.0838 94.652 89.4886C95.047 89.8934 95.2681 90.4365 95.2681 91.0021C95.2681 91.5676 95.047 92.1108 94.652 92.5156C94.2571 92.9203 93.7195 93.1547 93.1541 93.1685ZM65 88.8317H69.3329V93.1646H65V88.8291V88.8317ZM91.0078 114.834H95.3407V119.167H91.0078V114.834ZM117.013 88.8317H121.346V93.1646H117.013V88.8291V88.8317ZM91.0078 62.833H95.3407V67.1659H91.0078V62.833Z" fill="#1C3AA9"/>
<path d="M4.3329 95.3341V32.4999H104V51.9999H108.333V21.667C108.329 18.795 107.187 16.0416 105.156 14.0108C103.125 11.98 100.372 10.8375 97.5 10.8341H82.3329V8.66699C82.3329 6.94308 81.6481 5.28978 80.4291 4.0708C79.2101 2.85181 77.5568 2.16699 75.8329 2.16699C74.109 2.16699 72.4557 2.85181 71.2367 4.0708C70.0177 5.28978 69.3329 6.94308 69.3329 8.66699V10.8341H39V8.66699C39 6.94308 38.3152 5.28978 37.0962 4.0708C35.8772 2.85181 34.2239 2.16699 32.5 2.16699C30.7761 2.16699 29.1228 2.85181 27.9038 4.0708C26.6848 5.28978 26 6.94308 26 8.66699V10.8341H10.8329C7.96089 10.8375 5.2075 11.98 3.17668 14.0108C1.14587 16.0416 0.00344036 18.795 0 21.667L0 95.3341C0.00344036 98.2061 1.14587 100.959 3.17668 102.99C5.2075 105.021 7.96089 106.164 10.8329 106.167H54.1671V101.834H10.8329C9.10899 101.834 7.45569 101.149 6.23671 99.9303C5.01772 98.7113 4.3329 97.058 4.3329 95.3341ZM73.6671 8.66699C73.6809 8.1016 73.9153 7.56403 74.3201 7.16904C74.7248 6.77406 75.268 6.55297 75.8335 6.55297C76.3991 6.55297 76.9423 6.77406 77.347 7.16904C77.7518 7.56403 77.9861 8.1016 78 8.66699V17.3341C77.9861 17.8995 77.7518 18.4371 77.347 18.832C76.9423 19.227 76.3991 19.4481 75.8335 19.4481C75.268 19.4481 74.7248 19.227 74.3201 18.832C73.9153 18.4371 73.6809 17.8995 73.6671 17.3341V8.66699ZM30.3329 8.66699C30.3329 8.09224 30.5612 7.54103 30.9676 7.13462C31.374 6.72821 31.9252 6.49989 32.5 6.49989C33.0747 6.49989 33.626 6.72821 34.0324 7.13462C34.4388 7.54103 34.6671 8.09224 34.6671 8.66699V17.3341C34.6671 17.9088 34.4388 18.4601 34.0324 18.8665C33.626 19.2729 33.0747 19.5012 32.5 19.5012C31.9252 19.5012 31.374 19.2729 30.9676 18.8665C30.5612 18.4601 30.3329 17.9088 30.3329 17.3341V8.66699ZM10.8329 15.167H26V17.3341C26 19.058 26.6848 20.7113 27.9038 21.9303C29.1228 23.1493 30.7761 23.8341 32.5 23.8341C34.2239 23.8341 35.8772 23.1493 37.0962 21.9303C38.3152 20.7113 39 19.058 39 17.3341V15.167H69.3329V17.3341C69.3329 19.058 70.0177 20.7113 71.2367 21.9303C72.4557 23.1493 74.109 23.8341 75.8329 23.8341C77.5568 23.8341 79.2101 23.1493 80.4291 21.9303C81.6481 20.7113 82.3329 19.058 82.3329 17.3341V15.167H97.5C98.3536 15.167 99.1988 15.3351 99.9874 15.6618C100.776 15.9884 101.493 16.4672 102.096 17.0708C102.7 17.6744 103.179 18.3909 103.505 19.1796C103.832 19.9682 104 20.8134 104 21.667V28.167H4.3329V21.667C4.3329 19.9431 5.01772 18.2898 6.23671 17.0708C7.45569 15.8518 9.10899 15.167 10.8329 15.167Z" fill="#1C3AA9"/>
<path d="M30.321 49.8369C30.321 49.2677 30.2089 48.7041 29.9911 48.1783C29.7733 47.6524 29.454 47.1746 29.0516 46.7721C28.6491 46.3697 28.1713 46.0504 27.6454 45.8326C27.1196 45.6148 26.556 45.5027 25.9868 45.5027H17.321C16.7518 45.5027 16.1882 45.6148 15.6624 45.8326C15.1365 46.0504 14.6587 46.3697 14.2563 46.7721C13.8538 47.1746 13.5346 47.6524 13.3167 48.1783C13.0989 48.7041 12.9868 49.2677 12.9868 49.8369V58.5027C12.9868 59.6522 13.4435 60.7546 14.2563 61.5674C15.0691 62.3802 16.1715 62.8369 17.321 62.8369H25.9868C27.1363 62.8369 28.2387 62.3802 29.0516 61.5674C29.8644 60.7546 30.321 59.6522 30.321 58.5027V49.8369ZM17.321 58.5027V49.8369H25.9868V58.5027H17.321ZM52.0089 49.8369C52.0089 48.6876 51.5525 47.5854 50.7399 46.7726C49.9274 45.9598 48.8253 45.503 47.676 45.5027H39.0089C37.8596 45.503 36.7576 45.9598 35.945 46.7726C35.1325 47.5854 34.676 48.6876 34.676 49.8369V58.5027C34.676 59.652 35.1325 60.7542 35.945 61.567C36.7576 62.3798 37.8596 62.8365 39.0089 62.8369H47.676C48.8253 62.8365 49.9274 62.3798 50.7399 61.567C51.5525 60.7542 52.0089 59.652 52.0089 58.5027V49.8369ZM39.0089 58.5027V49.8369H47.676V58.5027H39.0089ZM73.6643 56.3369V49.8369C73.6643 48.6876 73.2079 47.5854 72.3953 46.7726C71.5828 45.9598 70.4807 45.503 69.3314 45.5027H60.6643C59.515 45.503 58.413 45.9598 57.6004 46.7726C56.7879 47.5854 56.3314 48.6876 56.3314 49.8369V58.5027C56.3314 59.652 56.7879 60.7542 57.6004 61.567C58.413 62.3798 59.515 62.8365 60.6643 62.8369H64.9998V58.5027H60.6656V49.8369H69.3327V56.3369H73.6643ZM25.9868 71.5027H17.321C16.7519 71.5025 16.1883 71.6145 15.6625 71.8321C15.1366 72.0498 14.6588 72.3689 14.2564 72.7713C13.8539 73.1737 13.5346 73.6514 13.3168 74.1772C13.0989 74.7029 12.9868 75.2665 12.9868 75.8356V84.5001C12.9866 85.0693 13.0986 85.633 13.3164 86.1589C13.5341 86.6848 13.8534 87.1627 14.2559 87.5652C14.6584 87.9677 15.1363 88.287 15.6622 88.5047C16.1881 88.7225 16.7518 88.8345 17.321 88.8343H25.9868C26.556 88.8345 27.1197 88.7225 27.6456 88.5047C28.1716 88.287 28.6494 87.9677 29.0519 87.5652C29.4544 87.1627 29.7737 86.6848 29.9914 86.1589C30.2092 85.633 30.3212 85.0693 30.321 84.5001V75.8343C30.3212 75.2651 30.2092 74.7014 29.9914 74.1755C29.7737 73.6495 29.4544 73.1717 29.0519 72.7692C28.6494 72.3667 28.1716 72.0474 27.6456 71.8297C27.1197 71.6119 26.556 71.4999 25.9868 71.5001V71.5027ZM17.321 84.5027V75.8356H25.9868V84.5001H17.321V84.5027ZM47.676 71.5027H39.0089C37.8598 71.5027 36.7577 71.9592 35.9451 72.7718C35.1325 73.5843 34.676 74.6864 34.676 75.8356V84.5001C34.6758 85.0692 34.7878 85.6328 35.0055 86.1586C35.2231 86.6845 35.5423 87.1623 35.9446 87.5648C36.347 87.9672 36.8247 88.2865 37.3505 88.5043C37.8763 88.7222 38.4398 88.8343 39.0089 88.8343H47.676C48.8253 88.8339 49.9274 88.3772 50.7399 87.5644C51.5525 86.7516 52.0089 85.6494 52.0089 84.5001V75.8343C52.0089 74.685 51.5525 73.5828 50.7399 72.77C49.9274 71.9572 48.8253 71.5004 47.676 71.5001V71.5027ZM39.0089 84.5027V75.8356H47.676V84.5001H39.0089V84.5027ZM95.321 52.0027V49.8369C95.321 48.6874 94.8644 47.585 94.0516 46.7721C93.2387 45.9593 92.1363 45.5027 90.9868 45.5027H82.321C81.1715 45.5027 80.0691 45.9593 79.2563 46.7721C78.4435 47.585 77.9868 48.6874 77.9868 49.8369V52.0027H82.321V49.8369H90.9868V52.0027H95.321Z" fill="#1C3AA9"/>
</svg>
