<svg width="105" height="112" viewBox="0 0 105 112" fill="none" xmlns="http://www.w3.org/2000/svg">
<g clip-path="url(#clip0_2337_411)">
<path d="M71.8027 0H0V111.333H104.113V27.065L71.8027 0ZM73.1013 6.33484L96.5508 25.9773H73.1013V6.33484ZM4.42994 107.622V3.71073H68.6713V29.6891H99.6835V107.622H4.42994Z" fill="#1C3AA9"/>
<path d="M79.7483 38.9643H44.3061C43.7185 38.9643 43.155 39.1598 42.7395 39.5078C42.324 39.8559 42.0905 40.328 42.0905 40.8202C42.0905 41.3124 42.324 41.7845 42.7395 42.1325C43.155 42.4806 43.7185 42.6761 44.3061 42.6761H79.747C80.3346 42.6761 80.8981 42.4806 81.3137 42.1325C81.7292 41.7845 81.9626 41.3124 81.9626 40.8202C81.9626 40.328 81.7292 39.8559 81.3137 39.5078C80.8981 39.1598 80.3359 38.9643 79.7483 38.9643ZM36.2796 33.8073L26.7525 40.1923L23.7235 37.6561C23.518 37.4838 23.2739 37.347 23.0052 37.2537C22.7366 37.1604 22.4486 37.1124 22.1578 37.1124C21.867 37.1124 21.579 37.1604 21.3103 37.2537C21.0417 37.347 20.7976 37.4838 20.5921 37.6561C20.3861 37.8283 20.2227 38.0328 20.1113 38.2579C19.9998 38.4831 19.9424 38.7244 19.9424 38.9682C19.9424 39.2119 19.9998 39.4532 20.1113 39.6784C20.2227 39.9035 20.3861 40.108 20.5921 40.2802L25.022 43.9909C25.4068 44.3142 25.9206 44.5069 26.4647 44.5322C27.0088 44.5575 27.5449 44.4135 27.97 44.1279L39.0468 36.7064C39.505 36.3988 39.7987 35.9515 39.8633 35.4626C39.928 34.9738 39.7583 34.4834 39.3917 34.0993C39.025 33.7151 38.4913 33.4686 37.9078 33.4139C37.3243 33.3591 36.7387 33.5006 36.2796 33.8073ZM79.7483 59.3783H44.3061C43.7187 59.3783 43.1553 59.5737 42.7399 59.9217C42.3245 60.2696 42.0912 60.7416 42.0912 61.2336C42.0912 61.7257 42.3245 62.1976 42.7399 62.5456C43.1553 62.8935 43.7187 63.089 44.3061 63.089H79.747C80.0379 63.089 80.326 63.041 80.5949 62.9477C80.8637 62.8544 81.1079 62.7177 81.3137 62.5454C81.5194 62.3731 81.6826 62.1685 81.794 61.9433C81.9053 61.7181 81.9626 61.4768 81.9626 61.2331C81.9626 60.9893 81.9053 60.748 81.794 60.5228C81.6826 60.2977 81.5194 60.0931 81.3137 59.9207C81.1079 59.7484 80.8637 59.6117 80.5949 59.5184C80.326 59.4252 80.0379 59.3772 79.747 59.3772L79.7483 59.3783ZM36.2796 54.2158L26.7525 60.6007L23.7235 58.0634C23.518 57.8911 23.2739 57.7543 23.0052 57.6611C22.7366 57.5678 22.4486 57.5197 22.1578 57.5197C21.867 57.5197 21.579 57.5678 21.3103 57.6611C21.0417 57.7543 20.7976 57.8911 20.5921 58.0634C20.3861 58.2356 20.2227 58.4401 20.1113 58.6653C19.9998 58.8904 19.9424 59.1317 19.9424 59.3755C19.9424 59.6192 19.9998 59.8606 20.1113 60.0857C20.2227 60.3108 20.3861 60.5154 20.5921 60.6875L25.022 64.3994C25.4068 64.7226 25.9206 64.9153 26.4647 64.9406C27.0088 64.9659 27.5449 64.8219 27.97 64.5363L39.0468 57.1138C39.4913 56.8025 39.7725 56.3578 39.8303 55.875C39.8881 55.3922 39.7178 54.9096 39.356 54.5306C38.9941 54.1517 38.4695 53.9065 37.8945 53.8477C37.3194 53.7888 36.7398 53.9209 36.2796 54.2158ZM79.7483 79.7878H44.3061C43.7185 79.7878 43.155 79.9833 42.7395 80.3314C42.324 80.6794 42.0905 81.1515 42.0905 81.6437C42.0905 82.1359 42.324 82.608 42.7395 82.9561C43.155 83.3041 43.7185 83.4996 44.3061 83.4996H79.747C80.3346 83.4996 80.8981 83.3041 81.3137 82.9561C81.7292 82.608 81.9626 82.1359 81.9626 81.6437C81.9626 81.1515 81.7292 80.6794 81.3137 80.3314C80.8981 79.9833 80.3359 79.7878 79.7483 79.7878ZM36.2796 74.6286L26.7525 81.0136L23.7235 78.4774C23.518 78.3051 23.2739 78.1683 23.0052 78.0751C22.7366 77.9818 22.4486 77.9337 22.1578 77.9337C21.867 77.9337 21.579 77.9818 21.3103 78.0751C21.0417 78.1683 20.7976 78.3051 20.5921 78.4774C20.3863 78.6496 20.2231 78.854 20.1117 79.0791C20.0004 79.3041 19.943 79.5453 19.943 79.7889C19.943 80.0325 20.0004 80.2738 20.1117 80.4988C20.2231 80.7238 20.3863 80.9283 20.5921 81.1004L25.022 84.8123C25.4068 85.1355 25.9206 85.3282 26.4647 85.3535C27.0088 85.3788 27.5449 85.2348 27.97 84.9492L39.0468 77.5266C39.4913 77.2154 39.7725 76.7707 39.8303 76.2879C39.8881 75.8051 39.7178 75.3225 39.356 74.9435C38.9941 74.5646 38.4695 74.3194 37.8945 74.2606C37.3194 74.2017 36.7398 74.3338 36.2796 74.6286Z" fill="#1C3AA9"/>
</g>
<defs>
<clipPath id="clip0_2337_411">
<rect width="105" height="111.333" fill="white"/>
</clipPath>
</defs>
</svg>
